<?xml version="1.0" standalone="no"?>
<!DOCTYPE svg PUBLIC "-//W3C//DTD SVG 20010904//EN"
 "http://www.w3.org/TR/2001/REC-SVG-20010904/DTD/svg10.dtd">
<svg version="1.0" xmlns="http://www.w3.org/2000/svg"
 width="560.000000pt" height="528.000000pt" viewBox="0 0 560.000000 528.000000"
 preserveAspectRatio="xMidYMid meet">

<defs>
<linearGradient id="logoGradient" gradientUnits="userSpaceOnUse" x1="0" y1="0" x2="560" y2="528">
<stop offset="0%" stop-color="#667eea"/>
<stop offset="50%" stop-color="#7C3AED"/>
<stop offset="100%" stop-color="#9333EA"/>
<stop offset="0%" stop-color="#4F46E5"/>
</linearGradient>
</defs>

<g transform="translate(0.000000,528.000000) scale(0.100000,-0.100000)"
fill="url(#logoGradient)" stroke="none">
<path d="M2570 4943 c-114 -23 -299 -82 -370 -117 -194 -97 -317 -200 -482
-403 -81 -99 -179 -303 -215 -447 -25 -103 -27 -126 -27 -306 0 -215 11 -293
65 -448 59 -170 112 -260 235 -401 204 -232 322 -318 536 -389 176 -59 284
-76 463 -76 144 0 156 2 310 42 238 63 386 142 533 286 262 255 434 602 449
901 13 260 -70 554 -221 782 -150 227 -373 410 -601 495 -189 70 -244 80 -455
83 -107 2 -206 1 -220 -2z m270 -133 c58 -17 137 -79 178 -139 49 -74 130
-257 153 -346 23 -86 23 -90 3 -109 -27 -28 -824 -19 -852 9 -17 16 119 335
187 439 50 76 108 134 147 146 40 12 142 12 184 0z m-400 -25 c0 -3 -20 -38
-44 -78 -63 -105 -113 -205 -160 -320 -32 -79 -46 -103 -62 -105 -26 -4 -342
72 -355 85 -19 19 220 211 414 333 92 58 207 105 207 85z m805 -51 c169 -82
454 -339 417 -376 -15 -15 -216 -75 -279 -83 -50 -7 -52 -6 -68 24 -9 18 -32
78 -51 134 -20 56 -65 154 -100 217 -35 64 -64 119 -64 122 0 15 79 -6 145
-38z m-1377 -503 c42 -17 124 -41 181 -55 57 -14 105 -27 107 -28 1 -2 -4 -57
-12 -123 -8 -66 -18 -162 -24 -214 -5 -52 -12 -97 -17 -101 -8 -7 -457 7 -480
15 -44 15 32 384 100 493 33 51 43 52 145 13z m1920 -23 c47 -77 133 -346 144
-448 l3 -35 -90 -6 c-227 -17 -431 -7 -440 20 -6 19 -31 218 -41 317 -5 59 -3
73 11 87 9 9 24 17 33 17 10 0 76 18 147 39 72 22 149 40 172 40 36 1 44 -3
61 -31z m-553 -130 c24 -110 33 -340 13 -354 -7 -5 -227 -7 -493 -4 l-480 5 0
155 c0 85 4 168 8 183 l8 29 77 -9 c106 -11 740 -7 777 5 54 18 84 14 90 -10z
m4 -485 l24 -6 -7 -146 c-4 -80 -10 -162 -15 -181 -7 -34 -8 -35 -56 -34 -322
6 -717 3 -790 -7 -78 -10 -90 -9 -100 5 -11 14 -35 242 -35 329 l0 37 473 3
c259 1 474 3 477 4 3 2 16 0 29 -4z m-1130 -16 c19 -24 60 -348 48 -380 -3 -9
-31 -23 -64 -33 -32 -9 -105 -37 -161 -61 -125 -53 -156 -60 -179 -42 -19 16
-66 116 -99 211 -26 76 -60 277 -52 300 5 12 44 15 251 15 177 1 248 -2 256
-10z m1826 3 c9 -15 -11 -105 -56 -250 -45 -150 -101 -275 -127 -289 -25 -13
-59 -3 -158 46 -44 22 -101 48 -129 58 -71 26 -92 42 -98 72 -3 14 1 94 9 177
7 83 13 159 14 168 0 15 14 18 98 21 242 8 441 6 447 -3z m-751 -468 c12 -7
-2 -93 -31 -185 -58 -186 -190 -389 -279 -432 -63 -30 -203 -6 -273 46 -85 62
-277 431 -269 514 3 29 5 30 79 42 126 21 351 31 564 26 110 -3 204 -8 209
-11z m303 -94 c69 -29 133 -61 144 -71 17 -16 18 -20 5 -45 -27 -51 -129 -153
-205 -205 -99 -68 -258 -161 -299 -175 -29 -10 -32 -9 -32 9 0 11 17 51 39 87
63 110 102 191 141 299 36 99 63 153 77 153 3 0 62 -24 130 -52z m-1252 -69
c18 -59 50 -138 73 -180 47 -81 95 -181 107 -218 7 -23 6 -24 -29 -18 -48 8
-111 40 -234 122 -121 79 -304 240 -300 262 5 25 289 144 333 140 16 -2 25
-22 50 -108z m280 -459 c3 -5 1 -10 -4 -10 -6 0 -11 5 -11 10 0 6 2 10 4 10 3
0 8 -4 11 -10z"/>
<path d="M4250 4391 l-185 -6 -3 -29 c-5 -44 6 -74 35 -93 24 -16 60 -18 352
-18 364 0 378 -2 400 -67 27 -78 33 -301 29 -1206 -1 -506 -6 -924 -10 -927
-8 -9 -4172 -7 -4206 2 -12 3 -25 15 -27 27 -3 11 -4 476 -3 1031 l3 1010 22
47 c38 82 39 82 420 88 l331 5 26 24 c14 13 28 37 31 53 13 58 16 58 -359 58
-192 0 -356 -4 -376 -10 -20 -5 -56 -23 -82 -39 -37 -24 -53 -44 -83 -104 -37
-75 -37 -78 -47 -247 -5 -97 -8 -658 -5 -1284 4 -1184 3 -1161 51 -1256 26
-49 45 -69 91 -94 40 -21 45 -21 760 -23 458 -2 721 -6 723 -12 4 -13 -59
-248 -101 -376 l-32 -100 -140 -7 c-77 -4 -145 -10 -151 -12 -20 -8 -38 -76
-25 -89 9 -9 285 -13 1070 -15 961 -2 1060 -1 1075 13 34 34 9 73 -55 86 -24
4 -92 11 -151 15 l-106 7 -15 51 c-9 28 -32 110 -52 181 -20 72 -48 156 -62
188 -14 31 -24 59 -22 61 2 3 324 7 714 9 510 4 721 9 750 17 80 24 166 152
183 272 13 90 16 2385 3 2472 -20 140 -96 245 -204 281 -60 20 -265 26 -567
16z m559 -2481 c35 -5 68 -15 73 -22 16 -22 1 -256 -21 -332 -11 -38 -22 -70
-24 -73 -20 -19 -275 -23 -1632 -22 -830 1 -1733 4 -2005 8 l-494 6 -35 59
c-35 59 -35 59 -39 206 -4 144 -4 148 18 163 21 14 219 16 2059 16 1215 1
2062 -3 2100 -9z m-1528 -747 c67 -201 96 -309 86 -319 -4 -4 -277 -9 -607
-10 l-600 -4 0 29 c0 57 73 316 119 424 l20 47 423 3 c233 1 441 3 462 2 l39
0 58 -172z"/>
</g>
</svg>
